<svg width="120" height="120" viewBox="0 0 120 120" fill="none" xmlns="http://www.w3.org/2000/svg">
  <defs>
    <linearGradient id="surface" x1="14" y1="14" x2="106" y2="106" gradientUnits="userSpaceOnUse">
      <stop offset="0" stop-color="#141C2F" />
      <stop offset="1" stop-color="#0B0F1A" />
    </linearGradient>
    <linearGradient id="brand" x1="28" y1="30" x2="94" y2="94" gradientUnits="userSpaceOnUse">
      <stop offset="0" stop-color="#6C5CE7" />
      <stop offset="0.58" stop-color="#4F7CFF" />
      <stop offset="1" stop-color="#00C2FF" />
    </linearGradient>
    <filter id="glow" x="0" y="0" width="120" height="120" filterUnits="userSpaceOnUse" color-interpolation-filters="sRGB">
      <feOffset dy="6" />
      <feGaussianBlur stdDeviation="9" />
      <feColorMatrix type="matrix" values="0 0 0 0 0.0627451 0 0 0 0 0.384314 0 0 0 0 1 0 0 0 0.28 0" />
      <feBlend in2="SourceGraphic" result="shape" />
    </filter>
  </defs>

  <g filter="url(#glow)">
    <rect x="10" y="10" width="100" height="100" rx="32" fill="url(#surface)" />
    <rect x="11" y="11" width="98" height="98" rx="31" stroke="rgba(255,255,255,0.12)" stroke-width="1.5" />
    <path d="M30 31H60.5C77.897 31 92 45.103 92 62.5V63.5C92 80.897 77.897 95 60.5 95H30V31Z" fill="url(#brand)" />
    <path d="M46 44H60C68.2843 44 75 50.7157 75 59V62C75 70.2843 68.2843 77 60 77H46V44Z" fill="#0B0F1A" fill-opacity="0.9" />
    <path d="M46 44H58.5C67.6127 44 75 51.3873 75 60.5V61.5C75 70.6127 67.6127 78 58.5 78H46V44Z" fill="#F8FAFC" fill-opacity="0.96" />
    <circle cx="82" cy="45" r="4" fill="#8EE9FF" />
  </g>
</svg>
