<svg width="256" height="256" viewBox="0 0 256 256" fill="none" xmlns="http://www.w3.org/2000/svg">
  <defs>
    <linearGradient id="bg" x1="40" y1="28" x2="210" y2="222" gradientUnits="userSpaceOnUse">
      <stop offset="0" stop-color="#141C2F" />
      <stop offset="1" stop-color="#0B0F1A" />
    </linearGradient>
    <linearGradient id="brand" x1="70" y1="56" x2="188" y2="190" gradientUnits="userSpaceOnUse">
      <stop offset="0" stop-color="#6C5CE7" />
      <stop offset="0.58" stop-color="#4F7CFF" />
      <stop offset="1" stop-color="#00C2FF" />
    </linearGradient>
    <filter id="glow" x="18" y="18" width="220" height="220" filterUnits="userSpaceOnUse" color-interpolation-filters="sRGB">
      <feOffset dy="8" />
      <feGaussianBlur stdDeviation="10" />
      <feColorMatrix type="matrix" values="0 0 0 0 0.0627451 0 0 0 0 0.384314 0 0 0 0 1 0 0 0 0.22 0" />
      <feBlend in2="SourceGraphic" result="shape" />
    </filter>
  </defs>

  <g filter="url(#glow)">
    <rect x="38" y="34" width="180" height="180" rx="56" fill="url(#bg)" />
    <rect x="39.5" y="35.5" width="177" height="177" rx="54.5" stroke="rgba(255,255,255,0.14)" stroke-width="3" />
    <path d="M88 66H138C168.928 66 194 91.0721 194 122V124C194 154.928 168.928 180 138 180H88V66Z" fill="url(#brand)" />
    <path d="M116 92H137C154.121 92 168 105.879 168 123V123C168 140.121 154.121 154 137 154H116V92Z" fill="#0B0F1A" fill-opacity="0.92" />
    <path d="M116 92H133C152.33 92 168 107.67 168 127V127C168 146.33 152.33 162 133 162H116V92Z" fill="#F8FAFC" fill-opacity="0.96" />
    <circle cx="176" cy="84" r="8" fill="#8EE9FF" />
  </g>
</svg>
